<mxfile host="Electron" modified="2023-09-19T16:36:59.232Z" agent="Mozilla/5.0 (Windows NT 10.0; Win64; x64) AppleWebKit/537.36 (KHTML, like Gecko) draw.io/21.6.8 Chrome/114.0.5735.289 Electron/25.5.0 Safari/537.36" etag="ZxrRDbey1yKqZs_DrB5e" version="21.6.8" type="device">
  <diagram name="Page-1" id="-hiMTYVra8NEYJS90R-R">
    <mxGraphModel dx="1434" dy="2056" grid="1" gridSize="10" guides="1" tooltips="1" connect="1" arrows="1" fold="1" page="1" pageScale="1" pageWidth="850" pageHeight="1100" math="0" shadow="0">
      <root>
        <mxCell id="0" />
        <mxCell id="1" parent="0" />
        <mxCell id="3mSz3onfg45XP_qRRyP_-27" style="rounded=0;orthogonalLoop=1;jettySize=auto;html=1;entryX=0.5;entryY=1;entryDx=0;entryDy=0;endArrow=none;endFill=0;" parent="1" edge="1">
          <mxGeometry relative="1" as="geometry">
            <mxPoint x="498.4744471977874" y="323.04805754687777" as="sourcePoint" />
            <mxPoint x="500" y="320" as="targetPoint" />
          </mxGeometry>
        </mxCell>
        <mxCell id="3mSz3onfg45XP_qRRyP_-7" value="Podcaster&lt;br&gt;(Primary)" style="shape=umlActor;verticalLabelPosition=bottom;verticalAlign=top;html=1;outlineConnect=0;" parent="1" vertex="1">
          <mxGeometry x="350" y="480" width="30" height="60" as="geometry" />
        </mxCell>
        <mxCell id="3mSz3onfg45XP_qRRyP_-19" value="1" style="text;html=1;align=center;verticalAlign=middle;resizable=0;points=[];autosize=1;strokeColor=none;fillColor=none;" parent="1" vertex="1">
          <mxGeometry x="320" y="450" width="30" height="30" as="geometry" />
        </mxCell>
        <mxCell id="3mSz3onfg45XP_qRRyP_-29" value="1" style="text;html=1;align=center;verticalAlign=middle;resizable=0;points=[];autosize=1;strokeColor=none;fillColor=none;" parent="1" vertex="1">
          <mxGeometry x="350" y="440" width="30" height="30" as="geometry" />
        </mxCell>
        <mxCell id="3mSz3onfg45XP_qRRyP_-30" value="1" style="text;html=1;align=center;verticalAlign=middle;resizable=0;points=[];autosize=1;strokeColor=none;fillColor=none;" parent="1" vertex="1">
          <mxGeometry x="395" y="450" width="30" height="30" as="geometry" />
        </mxCell>
        <mxCell id="3mSz3onfg45XP_qRRyP_-78" style="rounded=0;orthogonalLoop=1;jettySize=auto;html=1;entryX=0;entryY=1;entryDx=0;entryDy=0;" parent="1" source="3mSz3onfg45XP_qRRyP_-32" target="3mSz3onfg45XP_qRRyP_-51" edge="1">
          <mxGeometry relative="1" as="geometry" />
        </mxCell>
        <mxCell id="3mSz3onfg45XP_qRRyP_-32" value="Keyboard" style="rounded=0;whiteSpace=wrap;html=1;" parent="1" vertex="1">
          <mxGeometry x="120" y="270" width="120" height="60" as="geometry" />
        </mxCell>
        <mxCell id="3mSz3onfg45XP_qRRyP_-81" style="rounded=0;orthogonalLoop=1;jettySize=auto;html=1;entryX=1;entryY=0.75;entryDx=0;entryDy=0;" parent="1" source="3mSz3onfg45XP_qRRyP_-33" target="3mSz3onfg45XP_qRRyP_-51" edge="1">
          <mxGeometry relative="1" as="geometry" />
        </mxCell>
        <mxCell id="3mSz3onfg45XP_qRRyP_-33" value="Mouse" style="rounded=0;whiteSpace=wrap;html=1;" parent="1" vertex="1">
          <mxGeometry x="440" y="260" width="120" height="60" as="geometry" />
        </mxCell>
        <mxCell id="3mSz3onfg45XP_qRRyP_-79" value="" style="edgeStyle=orthogonalEdgeStyle;rounded=0;orthogonalLoop=1;jettySize=auto;html=1;entryX=1;entryY=0;entryDx=0;entryDy=0;" parent="1" source="3mSz3onfg45XP_qRRyP_-35" target="3mSz3onfg45XP_qRRyP_-35" edge="1">
          <mxGeometry relative="1" as="geometry">
            <Array as="points">
              <mxPoint x="360" y="260" />
            </Array>
          </mxGeometry>
        </mxCell>
        <mxCell id="3mSz3onfg45XP_qRRyP_-35" value="Display" style="rounded=0;whiteSpace=wrap;html=1;" parent="1" vertex="1">
          <mxGeometry x="260" y="260" width="120" height="60" as="geometry" />
        </mxCell>
        <mxCell id="3mSz3onfg45XP_qRRyP_-37" value="Enters information" style="text;html=1;align=center;verticalAlign=middle;resizable=0;points=[];autosize=1;strokeColor=none;fillColor=none;" parent="1" vertex="1">
          <mxGeometry x="160" y="430" width="120" height="30" as="geometry" />
        </mxCell>
        <mxCell id="3mSz3onfg45XP_qRRyP_-38" value="Enters information" style="text;html=1;align=center;verticalAlign=middle;resizable=0;points=[];autosize=1;strokeColor=none;fillColor=none;" parent="1" vertex="1">
          <mxGeometry x="425" y="410" width="120" height="30" as="geometry" />
        </mxCell>
        <mxCell id="3mSz3onfg45XP_qRRyP_-42" value="" style="rounded=0;orthogonalLoop=1;jettySize=auto;html=1;entryX=0.5;entryY=1;entryDx=0;entryDy=0;endArrow=none;endFill=0;exitX=0.187;exitY=1.147;exitDx=0;exitDy=0;exitPerimeter=0;" parent="1" source="3mSz3onfg45XP_qRRyP_-29" target="3mSz3onfg45XP_qRRyP_-35" edge="1">
          <mxGeometry relative="1" as="geometry">
            <mxPoint x="349.99999999999994" y="457.0800000000001" as="sourcePoint" />
            <mxPoint x="323.5863809020504" y="349.9985165257813" as="targetPoint" />
          </mxGeometry>
        </mxCell>
        <mxCell id="3mSz3onfg45XP_qRRyP_-50" style="rounded=0;orthogonalLoop=1;jettySize=auto;html=1;endArrow=none;endFill=0;exitX=0.5;exitY=1;exitDx=0;exitDy=0;" parent="1" source="3mSz3onfg45XP_qRRyP_-32" target="3mSz3onfg45XP_qRRyP_-7" edge="1">
          <mxGeometry relative="1" as="geometry">
            <mxPoint x="197.68637323583403" y="357.02820477055764" as="sourcePoint" />
          </mxGeometry>
        </mxCell>
        <mxCell id="3mSz3onfg45XP_qRRyP_-49" value="" style="rounded=0;orthogonalLoop=1;jettySize=auto;html=1;entryX=0.5;entryY=1;entryDx=0;entryDy=0;endArrow=none;endFill=0;" parent="1" target="3mSz3onfg45XP_qRRyP_-33" edge="1">
          <mxGeometry relative="1" as="geometry">
            <mxPoint x="388.45" y="470" as="sourcePoint" />
            <mxPoint x="479.99327393012726" y="358.12286271753953" as="targetPoint" />
          </mxGeometry>
        </mxCell>
        <mxCell id="3mSz3onfg45XP_qRRyP_-70" style="edgeStyle=orthogonalEdgeStyle;rounded=0;orthogonalLoop=1;jettySize=auto;html=1;entryX=0.5;entryY=1;entryDx=0;entryDy=0;endArrow=none;endFill=0;" parent="1" source="3mSz3onfg45XP_qRRyP_-51" target="3mSz3onfg45XP_qRRyP_-52" edge="1">
          <mxGeometry relative="1" as="geometry" />
        </mxCell>
        <mxCell id="3mSz3onfg45XP_qRRyP_-80" style="edgeStyle=orthogonalEdgeStyle;rounded=0;orthogonalLoop=1;jettySize=auto;html=1;entryX=0.5;entryY=0;entryDx=0;entryDy=0;" parent="1" source="3mSz3onfg45XP_qRRyP_-51" target="3mSz3onfg45XP_qRRyP_-35" edge="1">
          <mxGeometry relative="1" as="geometry" />
        </mxCell>
        <mxCell id="3mSz3onfg45XP_qRRyP_-83" style="rounded=0;orthogonalLoop=1;jettySize=auto;html=1;entryX=0;entryY=1;entryDx=0;entryDy=0;startArrow=classic;startFill=1;" parent="1" source="3mSz3onfg45XP_qRRyP_-51" target="3mSz3onfg45XP_qRRyP_-53" edge="1">
          <mxGeometry relative="1" as="geometry" />
        </mxCell>
        <mxCell id="3mSz3onfg45XP_qRRyP_-51" value="Computer" style="rounded=0;whiteSpace=wrap;html=1;" parent="1" vertex="1">
          <mxGeometry x="260" y="90" width="120" height="60" as="geometry" />
        </mxCell>
        <mxCell id="3mSz3onfg45XP_qRRyP_-52" value="Database" style="rounded=0;whiteSpace=wrap;html=1;" parent="1" vertex="1">
          <mxGeometry x="260" y="-70" width="120" height="60" as="geometry" />
        </mxCell>
        <mxCell id="3mSz3onfg45XP_qRRyP_-53" value="Cloud" style="rounded=0;whiteSpace=wrap;html=1;" parent="1" vertex="1">
          <mxGeometry x="479.99" y="20" width="120" height="60" as="geometry" />
        </mxCell>
        <mxCell id="3mSz3onfg45XP_qRRyP_-67" style="edgeStyle=orthogonalEdgeStyle;rounded=0;orthogonalLoop=1;jettySize=auto;html=1;" parent="1" source="3mSz3onfg45XP_qRRyP_-54" edge="1">
          <mxGeometry relative="1" as="geometry">
            <mxPoint x="365" y="580" as="targetPoint" />
          </mxGeometry>
        </mxCell>
        <mxCell id="3mSz3onfg45XP_qRRyP_-54" value="Podcast Manager&lt;br&gt;(Secondary)" style="shape=umlActor;verticalLabelPosition=bottom;verticalAlign=top;html=1;outlineConnect=0;" parent="1" vertex="1">
          <mxGeometry x="350" y="610" width="30" height="60" as="geometry" />
        </mxCell>
        <mxCell id="3mSz3onfg45XP_qRRyP_-56" value="" style="triangle;whiteSpace=wrap;html=1;fillColor=#000000;" parent="1" vertex="1">
          <mxGeometry x="190" y="410" width="20" height="20" as="geometry" />
        </mxCell>
        <mxCell id="3mSz3onfg45XP_qRRyP_-57" value="" style="triangle;whiteSpace=wrap;html=1;fillColor=#000000;" parent="1" vertex="1">
          <mxGeometry x="479.99" y="400" width="20" height="20" as="geometry" />
        </mxCell>
        <mxCell id="3mSz3onfg45XP_qRRyP_-60" value="" style="triangle;whiteSpace=wrap;html=1;fillColor=#000000;" parent="1" vertex="1">
          <mxGeometry x="350" y="360" width="20" height="20" as="geometry" />
        </mxCell>
        <mxCell id="3mSz3onfg45XP_qRRyP_-62" value="Interacts through" style="text;html=1;align=center;verticalAlign=middle;resizable=0;points=[];autosize=1;strokeColor=none;fillColor=none;" parent="1" vertex="1">
          <mxGeometry x="330" y="380" width="110" height="30" as="geometry" />
        </mxCell>
        <mxCell id="3mSz3onfg45XP_qRRyP_-69" value="Communicates&lt;br&gt;to" style="text;html=1;align=center;verticalAlign=middle;resizable=0;points=[];autosize=1;strokeColor=none;fillColor=none;" parent="1" vertex="1">
          <mxGeometry x="120" y="210" width="100" height="40" as="geometry" />
        </mxCell>
        <mxCell id="3mSz3onfg45XP_qRRyP_-71" value="Stores data in" style="text;html=1;align=center;verticalAlign=middle;resizable=0;points=[];autosize=1;strokeColor=none;fillColor=none;" parent="1" vertex="1">
          <mxGeometry x="315" y="50" width="100" height="30" as="geometry" />
        </mxCell>
        <mxCell id="3mSz3onfg45XP_qRRyP_-74" value="1" style="text;html=1;align=center;verticalAlign=middle;resizable=0;points=[];autosize=1;strokeColor=none;fillColor=none;" parent="1" vertex="1">
          <mxGeometry x="205" y="330" width="30" height="30" as="geometry" />
        </mxCell>
        <mxCell id="3mSz3onfg45XP_qRRyP_-75" value="1" style="text;html=1;align=center;verticalAlign=middle;resizable=0;points=[];autosize=1;strokeColor=none;fillColor=none;" parent="1" vertex="1">
          <mxGeometry x="499.99" y="320" width="30" height="30" as="geometry" />
        </mxCell>
        <mxCell id="3mSz3onfg45XP_qRRyP_-76" value="1" style="text;html=1;align=center;verticalAlign=middle;resizable=0;points=[];autosize=1;strokeColor=none;fillColor=none;" parent="1" vertex="1">
          <mxGeometry x="330" y="320" width="30" height="30" as="geometry" />
        </mxCell>
        <mxCell id="3mSz3onfg45XP_qRRyP_-77" value="1" style="text;html=1;align=center;verticalAlign=middle;resizable=0;points=[];autosize=1;strokeColor=none;fillColor=none;" parent="1" vertex="1">
          <mxGeometry x="320" y="-10" width="30" height="30" as="geometry" />
        </mxCell>
        <mxCell id="3mSz3onfg45XP_qRRyP_-84" value="Communicates With" style="text;html=1;align=center;verticalAlign=middle;resizable=0;points=[];autosize=1;strokeColor=none;fillColor=none;" parent="1" vertex="1">
          <mxGeometry x="395" y="120" width="130" height="30" as="geometry" />
        </mxCell>
        <mxCell id="3mSz3onfg45XP_qRRyP_-85" value="1" style="text;html=1;align=center;verticalAlign=middle;resizable=0;points=[];autosize=1;strokeColor=none;fillColor=none;" parent="1" vertex="1">
          <mxGeometry x="479.99" y="80" width="30" height="30" as="geometry" />
        </mxCell>
        <mxCell id="3mSz3onfg45XP_qRRyP_-86" value="1" style="text;html=1;align=center;verticalAlign=middle;resizable=0;points=[];autosize=1;strokeColor=none;fillColor=none;" parent="1" vertex="1">
          <mxGeometry x="350" y="110" width="30" height="30" as="geometry" />
        </mxCell>
        <mxCell id="3mSz3onfg45XP_qRRyP_-88" value="Communicates&lt;br&gt;to" style="text;html=1;align=center;verticalAlign=middle;resizable=0;points=[];autosize=1;strokeColor=none;fillColor=none;" parent="1" vertex="1">
          <mxGeometry x="435" y="200" width="100" height="40" as="geometry" />
        </mxCell>
        <mxCell id="3mSz3onfg45XP_qRRyP_-89" value="Communicates&lt;br&gt;to" style="text;html=1;align=center;verticalAlign=middle;resizable=0;points=[];autosize=1;strokeColor=none;fillColor=none;" parent="1" vertex="1">
          <mxGeometry x="315" y="180" width="100" height="40" as="geometry" />
        </mxCell>
        <mxCell id="3mSz3onfg45XP_qRRyP_-90" value="" style="triangle;whiteSpace=wrap;html=1;fillColor=#000000;" parent="1" vertex="1">
          <mxGeometry x="459.99" y="180" width="20" height="20" as="geometry" />
        </mxCell>
        <mxCell id="3mSz3onfg45XP_qRRyP_-91" value="" style="triangle;whiteSpace=wrap;html=1;fillColor=#000000;" parent="1" vertex="1">
          <mxGeometry x="340" y="220" width="20" height="20" as="geometry" />
        </mxCell>
        <mxCell id="3mSz3onfg45XP_qRRyP_-96" value="" style="triangle;whiteSpace=wrap;html=1;fillColor=#000000;" parent="1" vertex="1">
          <mxGeometry x="180" y="190" width="20" height="20" as="geometry" />
        </mxCell>
        <mxCell id="3mSz3onfg45XP_qRRyP_-97" value="" style="triangle;whiteSpace=wrap;html=1;fillColor=#000000;" parent="1" vertex="1">
          <mxGeometry x="440" y="100" width="20" height="20" as="geometry" />
        </mxCell>
        <mxCell id="3mSz3onfg45XP_qRRyP_-98" value="" style="triangle;whiteSpace=wrap;html=1;fillColor=#000000;" parent="1" vertex="1">
          <mxGeometry x="360" y="30" width="20" height="20" as="geometry" />
        </mxCell>
        <mxCell id="3mSz3onfg45XP_qRRyP_-100" value="1" style="text;html=1;align=center;verticalAlign=middle;resizable=0;points=[];autosize=1;strokeColor=none;fillColor=none;" parent="1" vertex="1">
          <mxGeometry x="280" y="50" width="30" height="30" as="geometry" />
        </mxCell>
        <mxCell id="rqCUpofp0GI7SjvbgFwu-34" style="rounded=0;orthogonalLoop=1;jettySize=auto;html=1;entryX=0.5;entryY=1;entryDx=0;entryDy=0;endArrow=none;endFill=0;" edge="1" parent="1">
          <mxGeometry relative="1" as="geometry">
            <mxPoint x="1198.4744471977874" y="348.04805754687777" as="sourcePoint" />
            <mxPoint x="1200" y="345" as="targetPoint" />
          </mxGeometry>
        </mxCell>
        <mxCell id="rqCUpofp0GI7SjvbgFwu-35" value="Podcaster&lt;br&gt;(Primary)" style="shape=umlActor;verticalLabelPosition=bottom;verticalAlign=top;html=1;outlineConnect=0;" vertex="1" parent="1">
          <mxGeometry x="1050" y="505" width="30" height="60" as="geometry" />
        </mxCell>
        <mxCell id="rqCUpofp0GI7SjvbgFwu-36" value="1" style="text;html=1;align=center;verticalAlign=middle;resizable=0;points=[];autosize=1;strokeColor=none;fillColor=none;" vertex="1" parent="1">
          <mxGeometry x="1020" y="475" width="30" height="30" as="geometry" />
        </mxCell>
        <mxCell id="rqCUpofp0GI7SjvbgFwu-37" value="1" style="text;html=1;align=center;verticalAlign=middle;resizable=0;points=[];autosize=1;strokeColor=none;fillColor=none;" vertex="1" parent="1">
          <mxGeometry x="1050" y="465" width="30" height="30" as="geometry" />
        </mxCell>
        <mxCell id="rqCUpofp0GI7SjvbgFwu-38" value="1" style="text;html=1;align=center;verticalAlign=middle;resizable=0;points=[];autosize=1;strokeColor=none;fillColor=none;" vertex="1" parent="1">
          <mxGeometry x="1095" y="475" width="30" height="30" as="geometry" />
        </mxCell>
        <mxCell id="rqCUpofp0GI7SjvbgFwu-39" style="rounded=0;orthogonalLoop=1;jettySize=auto;html=1;entryX=0.5;entryY=1;entryDx=0;entryDy=0;exitX=0.667;exitY=0;exitDx=0;exitDy=0;exitPerimeter=0;endArrow=none;endFill=0;" edge="1" parent="1" source="rqCUpofp0GI7SjvbgFwu-40" target="rqCUpofp0GI7SjvbgFwu-65">
          <mxGeometry relative="1" as="geometry">
            <mxPoint x="905" y="286.99" as="sourcePoint" />
            <mxPoint x="954.01" y="175.00000000000023" as="targetPoint" />
          </mxGeometry>
        </mxCell>
        <mxCell id="rqCUpofp0GI7SjvbgFwu-40" value="Keyboard" style="rounded=0;whiteSpace=wrap;html=1;" vertex="1" parent="1">
          <mxGeometry x="820" y="295" width="120" height="60" as="geometry" />
        </mxCell>
        <mxCell id="rqCUpofp0GI7SjvbgFwu-41" style="rounded=0;orthogonalLoop=1;jettySize=auto;html=1;entryX=0.5;entryY=1;entryDx=0;entryDy=0;endArrow=none;endFill=0;" edge="1" parent="1" source="rqCUpofp0GI7SjvbgFwu-42" target="rqCUpofp0GI7SjvbgFwu-66">
          <mxGeometry relative="1" as="geometry">
            <mxPoint x="1100" y="175" as="targetPoint" />
          </mxGeometry>
        </mxCell>
        <mxCell id="rqCUpofp0GI7SjvbgFwu-42" value="Mouse" style="rounded=0;whiteSpace=wrap;html=1;" vertex="1" parent="1">
          <mxGeometry x="1140" y="285" width="120" height="60" as="geometry" />
        </mxCell>
        <mxCell id="rqCUpofp0GI7SjvbgFwu-43" value="" style="edgeStyle=orthogonalEdgeStyle;rounded=0;orthogonalLoop=1;jettySize=auto;html=1;entryX=1;entryY=0;entryDx=0;entryDy=0;" edge="1" parent="1" source="rqCUpofp0GI7SjvbgFwu-44" target="rqCUpofp0GI7SjvbgFwu-44">
          <mxGeometry relative="1" as="geometry">
            <Array as="points">
              <mxPoint x="1060" y="285" />
            </Array>
          </mxGeometry>
        </mxCell>
        <mxCell id="rqCUpofp0GI7SjvbgFwu-44" value="Display" style="rounded=0;whiteSpace=wrap;html=1;" vertex="1" parent="1">
          <mxGeometry x="960" y="285" width="120" height="60" as="geometry" />
        </mxCell>
        <mxCell id="rqCUpofp0GI7SjvbgFwu-45" value="Enters information" style="text;html=1;align=center;verticalAlign=middle;resizable=0;points=[];autosize=1;strokeColor=none;fillColor=none;" vertex="1" parent="1">
          <mxGeometry x="850" y="435" width="120" height="30" as="geometry" />
        </mxCell>
        <mxCell id="rqCUpofp0GI7SjvbgFwu-46" value="Enters information" style="text;html=1;align=center;verticalAlign=middle;resizable=0;points=[];autosize=1;strokeColor=none;fillColor=none;" vertex="1" parent="1">
          <mxGeometry x="1135" y="415" width="120" height="30" as="geometry" />
        </mxCell>
        <mxCell id="rqCUpofp0GI7SjvbgFwu-47" value="" style="rounded=0;orthogonalLoop=1;jettySize=auto;html=1;entryX=0.5;entryY=1;entryDx=0;entryDy=0;endArrow=none;endFill=0;exitX=0.187;exitY=1.147;exitDx=0;exitDy=0;exitPerimeter=0;" edge="1" parent="1" source="rqCUpofp0GI7SjvbgFwu-37" target="rqCUpofp0GI7SjvbgFwu-44">
          <mxGeometry relative="1" as="geometry">
            <mxPoint x="1050" y="482.0800000000001" as="sourcePoint" />
            <mxPoint x="1023.5863809020505" y="374.9985165257813" as="targetPoint" />
          </mxGeometry>
        </mxCell>
        <mxCell id="rqCUpofp0GI7SjvbgFwu-48" style="rounded=0;orthogonalLoop=1;jettySize=auto;html=1;endArrow=none;endFill=0;exitX=0.5;exitY=1;exitDx=0;exitDy=0;" edge="1" parent="1" source="rqCUpofp0GI7SjvbgFwu-40" target="rqCUpofp0GI7SjvbgFwu-35">
          <mxGeometry relative="1" as="geometry">
            <mxPoint x="897.686373235834" y="382.02820477055764" as="sourcePoint" />
          </mxGeometry>
        </mxCell>
        <mxCell id="rqCUpofp0GI7SjvbgFwu-49" value="" style="rounded=0;orthogonalLoop=1;jettySize=auto;html=1;entryX=0.5;entryY=1;entryDx=0;entryDy=0;endArrow=none;endFill=0;" edge="1" parent="1" target="rqCUpofp0GI7SjvbgFwu-42">
          <mxGeometry relative="1" as="geometry">
            <mxPoint x="1088.45" y="495" as="sourcePoint" />
            <mxPoint x="1179.9932739301273" y="383.12286271753953" as="targetPoint" />
          </mxGeometry>
        </mxCell>
        <mxCell id="rqCUpofp0GI7SjvbgFwu-50" style="edgeStyle=orthogonalEdgeStyle;rounded=0;orthogonalLoop=1;jettySize=auto;html=1;entryX=0.5;entryY=0;entryDx=0;entryDy=0;" edge="1" parent="1" source="rqCUpofp0GI7SjvbgFwu-51" target="rqCUpofp0GI7SjvbgFwu-44">
          <mxGeometry relative="1" as="geometry" />
        </mxCell>
        <mxCell id="rqCUpofp0GI7SjvbgFwu-51" value="Computer" style="rounded=0;whiteSpace=wrap;html=1;" vertex="1" parent="1">
          <mxGeometry x="960" y="80" width="120" height="60" as="geometry" />
        </mxCell>
        <mxCell id="rqCUpofp0GI7SjvbgFwu-52" style="edgeStyle=orthogonalEdgeStyle;rounded=0;orthogonalLoop=1;jettySize=auto;html=1;" edge="1" parent="1" source="rqCUpofp0GI7SjvbgFwu-53">
          <mxGeometry relative="1" as="geometry">
            <mxPoint x="1065" y="605" as="targetPoint" />
          </mxGeometry>
        </mxCell>
        <mxCell id="rqCUpofp0GI7SjvbgFwu-53" value="Podcast Manager&lt;br&gt;(Secondary)" style="shape=umlActor;verticalLabelPosition=bottom;verticalAlign=top;html=1;outlineConnect=0;" vertex="1" parent="1">
          <mxGeometry x="1050" y="635" width="30" height="60" as="geometry" />
        </mxCell>
        <mxCell id="rqCUpofp0GI7SjvbgFwu-54" value="" style="triangle;whiteSpace=wrap;html=1;fillColor=#000000;rotation=-115;" vertex="1" parent="1">
          <mxGeometry x="890" y="415" width="20" height="20" as="geometry" />
        </mxCell>
        <mxCell id="rqCUpofp0GI7SjvbgFwu-55" value="" style="triangle;whiteSpace=wrap;html=1;fillColor=#000000;rotation=-50;" vertex="1" parent="1">
          <mxGeometry x="1180" y="385" width="20" height="20" as="geometry" />
        </mxCell>
        <mxCell id="rqCUpofp0GI7SjvbgFwu-56" value="" style="triangle;whiteSpace=wrap;html=1;fillColor=#000000;rotation=-104;" vertex="1" parent="1">
          <mxGeometry x="1050" y="385" width="20" height="20" as="geometry" />
        </mxCell>
        <mxCell id="rqCUpofp0GI7SjvbgFwu-57" value="Interacts through" style="text;html=1;align=center;verticalAlign=middle;resizable=0;points=[];autosize=1;strokeColor=none;fillColor=none;" vertex="1" parent="1">
          <mxGeometry x="1030" y="405" width="110" height="30" as="geometry" />
        </mxCell>
        <mxCell id="rqCUpofp0GI7SjvbgFwu-58" value="1" style="text;html=1;align=center;verticalAlign=middle;resizable=0;points=[];autosize=1;strokeColor=none;fillColor=none;" vertex="1" parent="1">
          <mxGeometry x="905" y="355" width="30" height="30" as="geometry" />
        </mxCell>
        <mxCell id="rqCUpofp0GI7SjvbgFwu-59" value="1" style="text;html=1;align=center;verticalAlign=middle;resizable=0;points=[];autosize=1;strokeColor=none;fillColor=none;" vertex="1" parent="1">
          <mxGeometry x="1199.99" y="345" width="30" height="30" as="geometry" />
        </mxCell>
        <mxCell id="rqCUpofp0GI7SjvbgFwu-60" value="1" style="text;html=1;align=center;verticalAlign=middle;resizable=0;points=[];autosize=1;strokeColor=none;fillColor=none;" vertex="1" parent="1">
          <mxGeometry x="1030" y="345" width="30" height="30" as="geometry" />
        </mxCell>
        <mxCell id="rqCUpofp0GI7SjvbgFwu-61" value="1" style="text;html=1;align=center;verticalAlign=middle;resizable=0;points=[];autosize=1;strokeColor=none;fillColor=none;" vertex="1" parent="1">
          <mxGeometry x="905" y="265" width="30" height="30" as="geometry" />
        </mxCell>
        <mxCell id="rqCUpofp0GI7SjvbgFwu-62" value="1" style="text;html=1;align=center;verticalAlign=middle;resizable=0;points=[];autosize=1;strokeColor=none;fillColor=none;" vertex="1" parent="1">
          <mxGeometry x="990" y="255" width="30" height="30" as="geometry" />
        </mxCell>
        <mxCell id="rqCUpofp0GI7SjvbgFwu-63" value="1" style="text;html=1;align=center;verticalAlign=middle;resizable=0;points=[];autosize=1;strokeColor=none;fillColor=none;" vertex="1" parent="1">
          <mxGeometry x="1135" y="255" width="30" height="30" as="geometry" />
        </mxCell>
        <mxCell id="rqCUpofp0GI7SjvbgFwu-64" value="" style="rhombus;whiteSpace=wrap;html=1;fillColor=#000000;rotation=0;" vertex="1" parent="1">
          <mxGeometry x="1010" y="140" width="20" height="35" as="geometry" />
        </mxCell>
        <mxCell id="rqCUpofp0GI7SjvbgFwu-65" value="" style="rhombus;whiteSpace=wrap;html=1;fillColor=#FFFFFF;rotation=15;" vertex="1" parent="1">
          <mxGeometry x="948.03" y="140" width="20.65" height="30.08" as="geometry" />
        </mxCell>
        <mxCell id="rqCUpofp0GI7SjvbgFwu-66" value="" style="rhombus;whiteSpace=wrap;html=1;fillColor=#FFFFFF;rotation=-30;" vertex="1" parent="1">
          <mxGeometry x="1074.6708225947764" y="134.99983106807113" width="20.65" height="30.08" as="geometry" />
        </mxCell>
      </root>
    </mxGraphModel>
  </diagram>
</mxfile>
